<?xml version="1.0" encoding="utf-8"?>
<!-- Generator: Adobe Illustrator 26.0.2, SVG Export Plug-In . SVG Version: 6.00 Build 0)  -->
<svg version="1.1" xmlns="http://www.w3.org/2000/svg" xmlns:xlink="http://www.w3.org/1999/xlink" x="0px" y="0px"
	 viewBox="0 0 90 30" style="enable-background:new 0 0 90 30;" xml:space="preserve">
<style type="text/css">
	.st0{fill:#19BCEF;}
	.st1{fill:#20BCEE;}
</style>
<g id="Guides">
</g>
<g id="Image">
</g>
<g id="Paths">
	<g id="g3000" transform="matrix(0.04824549,0,0,0.04824549,0,38079.698)">
		<g>
			<path class="st0" d="M619.5-789105.8h24.4v111.2h130.7v-111.2h24.4v256.4h-24.4v-121.3H643.9v121.3h-24.4V-789105.8z"/>
			<path class="st0" d="M905.2-788875.8h0.7l49.1-143.1h25l-78.9,213.4c-4.7,13-10.8,23.4-18.1,31.3c-7.3,7.8-17.9,11.8-31.7,11.8
				c-7,0-13.9-0.7-20.6-2.2l2.4-22.4c5.4,1.9,11.1,2.9,16.9,2.9c7.9,0,14.1-2.6,18.6-7.8c4.5-5.2,8.5-12.6,11.8-22.3l12.9-35.4
				l-67.7-169.2h25.7L905.2-788875.8z"/>
			<path class="st0" d="M1028.5-788762.4h-23v-256.4h23v29.4h1c6.5-11.1,15.3-19.6,26.2-25.2c10.9-5.7,22.1-8.5,33.3-8.5
				c12.4,0,23.6,2.2,33.7,6.9c10,4.6,18.6,10.9,25.7,18.8c7.1,8,12.6,17.4,16.6,28.2c3.9,10.9,5.9,22.6,5.9,35.1s-2,24.3-5.9,35.1
				c-4,10.9-9.5,20.3-16.6,28.2c-7.1,8-15.7,14.2-25.7,18.9c-10,4.6-21.3,6.9-33.7,6.9c-11.3,0-22.4-2.8-33.3-8.5
				c-10.9-5.7-19.7-13.8-26.2-24.5h-1V-788762.4z M1146.6-788934.1c0-9.4-1.4-18.2-4.1-26.6c-2.7-8.3-6.6-15.6-11.7-21.8
				c-5.1-6.1-11.3-11-18.8-14.6c-7.4-3.6-15.9-5.4-25.4-5.4c-8.8,0-16.9,1.8-24.4,5.2s-13.9,8.3-19.3,14.5
				c-5.4,6.1-9.6,13.4-12.7,21.7c-3,8.4-4.6,17.4-4.6,27c0,9.7,1.5,18.7,4.6,27c3,8.3,7.3,15.5,12.7,21.6c5.4,6,11.8,10.8,19.3,14.3
				s15.6,5.2,24.4,5.2c9.5,0,17.9-1.8,25.4-5.2c7.4-3.5,13.7-8.4,18.8-14.5c5.1-6.2,9-13.4,11.7-21.8
				C1145.2-788915.8,1146.6-788924.7,1146.6-788934.1z"/>
			<path class="st0" d="M1354.1-788939.2c0,1.7,0,3.5,0,5.4s-0.1,4-0.3,6.1h-131.3c0.2,8.5,1.8,16.4,4.7,23.9
				c2.9,7.5,7,14,12.2,19.6c5.2,5.6,11.3,9.9,18.3,13.2c7,3.2,14.6,4.9,22.7,4.9c12,0,22.3-3,31-8.9c8.7-5.9,15.3-12.8,19.8-20.5
				l17.3,14.5c-9.5,12.8-19.9,22-31.3,27.6c-11.4,5.5-23.6,8.3-36.7,8.3c-11.7,0-22.6-2.2-32.7-6.7c-10-4.5-18.7-10.7-25.9-18.7
				c-7.2-7.9-12.9-17.4-17.1-28.2c-4.2-10.9-6.3-22.7-6.3-35.5c0-12.8,2-24.6,6.1-35.5c4.1-10.9,9.7-20.2,16.9-28.2
				c7.2-7.9,15.7-14.2,25.4-18.6c9.7-4.5,20.2-6.7,31.5-6.7c12.4,0,23.4,2.2,32.8,6.7c9.5,4.4,17.4,10.5,23.7,18.1
				c6.3,7.6,11.1,16.5,14.4,26.6C1352.5-788961.6,1354.1-788950.8,1354.1-788939.2z M1330.7-788947.1c-0.7-15.9-5.5-29.2-14.4-39.7
				c-8.9-10.5-21.6-15.8-38.1-15.8c-7.7,0-14.8,1.5-21.3,4.5c-6.5,3.1-12.3,7.1-17.3,12.3c-5,5.2-8.9,11.1-11.8,17.8
				c-2.9,6.7-4.6,13.6-5.1,20.9H1330.7z"/>
			<path class="st0" d="M1392.7-788999.3c-0.2-7.2-0.6-13.8-1-19.6h22c0.5,4.6,0.8,9.7,1,15.2c0.2,5.6,0.3,10.2,0.3,13.8h0.7
				c4.5-9.9,11.3-17.9,20.3-24.1c9-6.1,19.2-9.2,30.5-9.2c2.9,0,5.6,0.1,8,0.3c2.4,0.2,4.8,0.8,7.3,1.5l-3,23.5
				c-1.4-0.5-3.6-0.9-6.8-1.4c-3.2-0.5-6.3-0.7-9.5-0.7c-6.1,0-12,1.2-17.6,3.6c-5.6,2.4-10.6,6.2-14.7,11.4
				c-4.2,5.2-7.6,11.8-10.2,19.9c-2.6,8.1-3.9,17.8-3.9,29.1v86.7h-23v-132.2C1393-788986.1,1392.9-788992.1,1392.7-788999.3z"/>
			<path class="st0" d="M1557.9-788926.9h-75.8v-20.6h75.8V-788926.9z"/>
			<path class="st0" d="M1660.8-788883.1h0.7l77.9-222.8h26.1l-91.7,256.4h-25.7l-91.4-256.4h26.4L1660.8-788883.1z"/>
		</g>
	</g>
	<polygon class="st1" points="21.6,16.9 21.6,27.1 9.8,25.5 9.8,16.9 	"/>
	<polygon class="st1" points="8.8,16.9 8.8,25.3 0,24.1 0,16.9 	"/>
	<polygon class="st1" points="8.8,7.3 8.8,15.8 0,15.8 0,8.5 	"/>
	<polygon class="st1" points="21.6,5.5 21.6,15.8 9.8,15.8 9.8,7.1 	"/>
</g>
</svg>
