<?xml version="1.0" encoding="utf-8"?>
<!-- Generator: Adobe Illustrator 21.0.2, SVG Export Plug-In . SVG Version: 6.00 Build 0)  -->
<svg version="1.1" id="Layer_1" xmlns="http://www.w3.org/2000/svg" xmlns:xlink="http://www.w3.org/1999/xlink" x="0px" y="0px"
	 viewBox="0 0 76.6 76.6" style="enable-background:new 0 0 76.6 76.6;" xml:space="preserve">
<style type="text/css">
	.st0{fill:#E2E2E2;}
	.st1{fill:#00ABF3;}
</style>
<circle class="st0" cx="38.3" cy="38.3" r="38.3"/>
<path class="st1" d="M26.5,14.4l9.6-1.3v9.3h-9.6L26.5,14.4z M36.1,24.6v9.2l-9.6-1.3v-7.9H36.1L36.1,24.6L36.1,24.6z M38.3,12.9
	l12.8-1.8v11.2H38.3V12.9z M51.1,24.6v11.1l-12.8-1.8v-9.3L51.1,24.6L51.1,24.6z"/>
<g>
	<path class="st1" d="M5.1,42h1.6v5H13v-5h1.6v12H13v-5.5H6.8V54H5.1V42z"/>
	<path class="st1" d="M20.6,48.9L16,42h2.1l3.3,5.3l3.4-5.3h2l-4.6,6.9V54h-1.6C20.6,54,20.6,48.9,20.6,48.9z"/>
	<path class="st1" d="M28.1,42h4.2c0.8,0,1.4,0.1,1.9,0.3s0.9,0.5,1.2,0.8s0.5,0.7,0.6,1.1c0.1,0.4,0.2,0.8,0.2,1.2
		s-0.1,0.8-0.2,1.2c-0.1,0.4-0.3,0.8-0.6,1.1s-0.7,0.6-1.2,0.8s-1.1,0.3-1.9,0.3h-2.6V54h-1.6C28.1,54,28.1,42,28.1,42z M29.8,47.3
		h2.1c0.3,0,0.6,0,0.9-0.1s0.6-0.1,0.8-0.3c0.2-0.1,0.4-0.3,0.6-0.6c0.1-0.3,0.2-0.6,0.2-1s-0.1-0.7-0.2-1c-0.1-0.3-0.3-0.5-0.6-0.6
		c-0.2-0.1-0.5-0.2-0.8-0.3s-0.6-0.1-0.9-0.1h-2.1V47.3z"/>
	<path class="st1" d="M38.2,42H46v1.5h-6.1v3.6h5.7v1.5h-5.7v3.9h6.4V54h-8.1C38.2,54,38.2,42,38.2,42z"/>
	<path class="st1" d="M48.6,42h4.2c0.8,0,1.4,0.1,1.9,0.3s0.9,0.5,1.2,0.8s0.5,0.7,0.6,1.1c0.1,0.4,0.2,0.8,0.2,1.2
		s-0.1,0.8-0.2,1.1c-0.1,0.4-0.3,0.7-0.6,1S55.3,48,55,48.2c-0.4,0.2-0.8,0.3-1.2,0.4l3.4,5.5h-2l-3.1-5.3h-1.8V54h-1.6V42H48.6z
		 M50.2,47.3h2.1c0.3,0,0.6,0,0.9-0.1c0.3-0.1,0.6-0.1,0.8-0.3c0.2-0.1,0.4-0.3,0.6-0.6c0.1-0.3,0.2-0.6,0.2-1s-0.1-0.7-0.2-1
		c-0.1-0.3-0.3-0.5-0.6-0.6c-0.2-0.1-0.5-0.2-0.8-0.3s-0.6-0.1-0.9-0.1h-2.1V47.3z"/>
	<path class="st1" d="M62.2,50.6H58v-1.4h4.2V50.6z"/>
	<path class="st1" d="M62.7,42h1.9l3.5,9.8l0,0l3.7-9.8h1.8l-4.7,12h-1.5L62.7,42z"/>
</g>
</svg>
